<mxfile host="app.diagrams.net" modified="2023-08-06T23:19:01.085Z" agent="Mozilla/5.0 (X11; Ubuntu; Linux x86_64; rv:109.0) Gecko/20100101 Firefox/116.0" version="21.6.6" etag="TcVUZAW14vH12Up8TIYi" type="github">
  <diagram name="Page-1" id="3IJF1rgMHxwA40GGIiCs">
    <mxGraphModel>
      <root>
        <mxCell id="0" />
        <mxCell id="1" parent="0" />
      </root>
    </mxGraphModel>
  </diagram>
</mxfile>
